# xmcd
#
# Track frame offsets: 
#        180
#        22673
#        42280
#        66161
#        85983
#        103954
#        128064
#        146111
#        176912
#        193887
#        221082
#        239137
#        257943
#        275751
#
# Disc length: 4021 seconds
#
# Revision: 0
# Processed by: cddbd v1.5.1PL0 Copyright (c) Steve Scherf et al.
# Submitted via: ExactAudioCopy v0.95a5
#
DISCID=e30fb30e
DTITLE=Rhumboogie - Cold Love
DYEAR=2000
DGENRE=Blues
TTITLE0=Sittin' An Waitin'
TTITLE1=Cold Love
TTITLE2=Nothing Takes The Place
TTITLE3=One More Chance With You
TTITLE4=Blue Monday
TTITLE5=Change My Mind
TTITLE6=Rock This House
TTITLE7=I Found A New Love
TTITLE8=Miss Ann
TTITLE9=I Die A Little Each Day
TTITLE10=Quiet Whiskey
TTITLE11=Sick And Tired
TTITLE12=She Doesn't Work That Way
TTITLE13=Destiny
EXTD=Steve Prisby - piano, organ, harmonica\nTom Wright - guitar\nPete
EXTD=Carlson - bass\nRick Rousseau - drums, vox (except 12]\nMark Sei
EXTD=bel - tenor sax, vox on 12
EXTT0=
EXTT1=
EXTT2=
EXTT3=
EXTT4=
EXTT5=
EXTT6=
EXTT7=
EXTT8=
EXTT9=
EXTT10=
EXTT11=
EXTT12=
EXTT13=
PLAYORDER=
